<svg width="24" height="24" viewBox="0 0 24 24" fill="none" xmlns="http://www.w3.org/2000/svg">
<path fill-rule="evenodd" clip-rule="evenodd" d="M14.2703 4.86486C14.2703 7.55166 16.4483 9.72973 19.1351 9.72973C21.8219 9.72973 24 7.55166 24 4.86486C24 2.17807 21.8219 0 19.1351 0C16.4483 0 14.2703 2.17807 14.2703 4.86486ZM12.3319 4.54054C12.3528 4.09561 12.4163 3.66184 12.5186 3.24324H3.89201C1.74251 3.24324 0 4.98615 0 7.13525V20.108C0 22.2575 1.7429 24 3.89201 24H16.8648C19.0142 24 20.7568 22.2571 20.7568 20.108V11.4814C20.3382 11.5837 19.9044 11.6472 19.4595 11.6681V20.108C19.4595 21.5408 18.2976 22.7027 16.8648 22.7027H3.89201C2.45923 22.7027 1.2973 21.5409 1.2973 20.108V7.13525C1.2973 5.70247 2.45914 4.54054 3.89201 4.54054H12.3319Z" fill="white"/>
</svg>
