<svg width="22" height="26" viewBox="0 0 22 26" fill="none" xmlns="http://www.w3.org/2000/svg">
<path fill-rule="evenodd" clip-rule="evenodd" d="M12.9844 22.4145C13.2334 22.7799 13.3784 23.2179 13.3784 23.6889C13.3784 24.9653 12.3135 26 11 26C9.68646 26 8.62162 24.9653 8.62162 23.6889C8.62162 23.2179 8.7666 22.7799 9.01555 22.4145L3.73611 18.3644C3.35113 18.625 2.88311 18.7778 2.37838 18.7778C1.06484 18.7778 0 17.7431 0 16.4667C0 15.3384 0.832049 14.3989 1.93243 14.1961V11.8039C0.832049 11.6011 0 10.6616 0 9.53333C0 8.25694 1.06484 7.22222 2.37838 7.22222C2.88311 7.22222 3.35113 7.375 3.73611 7.63556L9.01555 3.58546C8.7666 3.22014 8.62162 2.78208 8.62162 2.31111C8.62162 1.03472 9.68646 0 11 0C12.3135 0 13.3784 1.03472 13.3784 2.31111C13.3784 2.78208 13.2334 3.22014 12.9844 3.58546L18.2639 7.63556C18.6489 7.375 19.1169 7.22222 19.6216 7.22222C20.9352 7.22222 22 8.25694 22 9.53333C22 10.6616 21.168 11.6011 20.0676 11.8039V14.1961C21.168 14.3989 22 15.3384 22 16.4667C22 17.7431 20.9352 18.7778 19.6216 18.7778C19.1169 18.7778 18.6489 18.625 18.2639 18.3644L12.9844 22.4145ZM10.5541 18.7372V21.4183C10.2202 21.4799 9.91099 21.6092 9.64227 21.7911L4.36283 17.741C4.61178 17.3757 4.75676 16.9376 4.75676 16.4667C4.75676 15.9991 4.61384 15.5639 4.36814 15.2001L6.68919 13.5383L9.01024 15.2001C8.76454 15.5639 8.62162 15.9991 8.62162 16.4667C8.62162 17.5949 9.45367 18.5344 10.5541 18.7372ZM12.3577 21.7911C12.089 21.6092 11.7798 21.4799 11.4459 21.4183V18.7372C12.5463 18.5344 13.3784 17.5949 13.3784 16.4667C13.3784 15.9991 13.2355 15.5639 12.9898 15.2001L15.3108 13.5383L17.6319 15.2001C17.3862 15.5639 17.2432 15.9991 17.2432 16.4667C17.2432 16.9376 17.3882 17.3757 17.6372 17.741L12.3577 21.7911ZM5.93742 13L3.74131 14.5724C3.47138 14.3887 3.16036 14.2581 2.82432 14.1961V11.8039C3.16036 11.7419 3.47138 11.6113 3.74131 11.4276L5.93742 13ZM4.36814 10.7999L6.68919 12.4617L9.01024 10.7999C8.76454 10.4361 8.62162 10.0009 8.62162 9.53333C8.62162 8.40505 9.45367 7.46561 10.5541 7.26278V4.58166C10.2202 4.52012 9.91099 4.39076 9.64227 4.20888L4.36283 8.25898C4.61178 8.6243 4.75676 9.06237 4.75676 9.53333C4.75676 10.0009 4.61384 10.4361 4.36814 10.7999ZM19.1757 14.1961C18.8396 14.2581 18.5286 14.3887 18.2587 14.5724L16.0626 13L18.2587 11.4276C18.5286 11.6113 18.8396 11.7419 19.1757 11.8039V14.1961ZM17.6372 8.25898L12.3577 4.20888C12.089 4.39076 11.7798 4.52012 11.4459 4.58166V7.26278C12.5463 7.46561 13.3784 8.40505 13.3784 9.53333C13.3784 10.0009 13.2355 10.4361 12.9898 10.7999L15.3108 12.4617L17.6319 10.7999C17.3862 10.4361 17.2432 10.0009 17.2432 9.53333C17.2432 9.06237 17.3882 8.6243 17.6372 8.25898ZM11 14.1556C10.493 14.1556 10.023 14.3097 9.63707 14.5724L7.44095 13L9.63707 11.4276C10.023 11.6903 10.493 11.8444 11 11.8444C11.507 11.8444 11.977 11.6903 12.3629 11.4276L14.559 13L12.3629 14.5724C11.977 14.3097 11.507 14.1556 11 14.1556ZM10.9982 10.9778C11.8192 10.9778 12.4847 10.3311 12.4847 9.53331C12.4847 8.73557 11.8192 8.08887 10.9982 8.08887C10.1772 8.08887 9.51172 8.73557 9.51172 9.53331C9.51172 10.3311 10.1772 10.9778 10.9982 10.9778ZM12.4847 16.4669C12.4847 17.2647 11.8192 17.9114 10.9982 17.9114C10.1772 17.9114 9.51172 17.2647 9.51172 16.4669C9.51172 15.6692 10.1772 15.0225 10.9982 15.0225C11.8192 15.0225 12.4847 15.6692 12.4847 16.4669ZM19.6232 10.9778C20.4442 10.9778 21.1097 10.3311 21.1097 9.53331C21.1097 8.73557 20.4442 8.08887 19.6232 8.08887C18.8022 8.08887 18.1367 8.73557 18.1367 9.53331C18.1367 10.3311 18.8022 10.9778 19.6232 10.9778ZM21.1097 16.4669C21.1097 17.2647 20.4442 17.9114 19.6232 17.9114C18.8022 17.9114 18.1367 17.2647 18.1367 16.4669C18.1367 15.6692 18.8022 15.0225 19.6232 15.0225C20.4442 15.0225 21.1097 15.6692 21.1097 16.4669ZM2.37711 10.9778C3.19808 10.9778 3.8636 10.3311 3.8636 9.53331C3.8636 8.73557 3.19808 8.08887 2.37711 8.08887C1.55615 8.08887 0.890625 8.73557 0.890625 9.53331C0.890625 10.3311 1.55615 10.9778 2.37711 10.9778ZM3.8636 16.4669C3.8636 17.2647 3.19808 17.9114 2.37711 17.9114C1.55615 17.9114 0.890625 17.2647 0.890625 16.4669C0.890625 15.6692 1.55615 15.0225 2.37711 15.0225C3.19808 15.0225 3.8636 15.6692 3.8636 16.4669ZM10.9982 25.133C11.8192 25.133 12.4847 24.4863 12.4847 23.6886C12.4847 22.8908 11.8192 22.2441 10.9982 22.2441C10.1772 22.2441 9.51172 22.8908 9.51172 23.6886C9.51172 24.4863 10.1772 25.133 10.9982 25.133ZM12.4847 2.31066C12.4847 3.1084 11.8192 3.7551 10.9982 3.7551C10.1772 3.7551 9.51172 3.1084 9.51172 2.31066C9.51172 1.51291 10.1772 0.866211 10.9982 0.866211C11.8192 0.866211 12.4847 1.51291 12.4847 2.31066Z" fill="white"/>
</svg>
